<svg xmlns="http://www.w3.org/2000/svg" version="1.0" width="2000.000000" height="1192.000000" preserveAspectRatio="xMidYMid meet" style=""><rect id="backgroundrect" width="100%" height="100%" x="0" y="0" fill="none" stroke="none"/>


<g class="currentLayer" style=""><title>Layer 1</title><g transform="translate(0,1192) scale(0.10000000149011612,-0.10000000149011612) " fill="#4e008d" stroke="none" id="svg_1" class="selected" fill-opacity="1">
<path d="M19972,11868.555557250977 c-7,-3 -43,-50 -81,-106 c-179,-262 -373,-436 -860,-772 c-360,-248 -668,-406 -1121,-575 c-470,-175 -611,-279 -550,-405 c25,-52 92,-105 165,-129 c67,-22 120,-61 140,-102 c20,-43 9,-118 -30,-193 c-39,-78 -11,-64 101,52 c55,56 133,125 174,153 c71,48 79,52 151,56 c53,3 93,13 134,32 c59,27 86,27 50,-1 c-26,-20 -91,-48 -195,-85 c-163,-58 -228,-120 -315,-302 c-77,-159 -205,-325 -304,-395 c-85,-60 -165,-148 -191,-211 c-73,-175 -250,-329 -438,-379 c-62,-17 -110,-65 -148,-146 c-31,-69 -65,-115 -84,-115 c-15,0 -12,86 4,124 c21,50 74,105 128,132 c62,31 88,58 88,89 c0,16 11,32 30,46 c24,18 27,25 18,37 c-11,13 -40,12 -80,-3 c-26,-10 -24,35 2,68 c75,95 -73,3 -328,-204 c-74,-60 -144,-121 -156,-136 c-23,-29 -25,-65 -11,-194 c6,-59 4,-72 -22,-135 c-17,-38 -36,-94 -43,-124 c-18,-75 -16,-218 5,-320 c19,-95 16,-175 -11,-253 c-21,-61 -14,-81 26,-74 c16,4 32,2 35,-4 c4,-6 24,-7 51,-3 c86,13 124,-13 124,-82 c0,-25 -5,-54 -10,-65 c-6,-10 -12,-63 -13,-116 c-2,-84 -6,-107 -31,-161 c-41,-89 -181,-219 -361,-334 c-84,-54 -155,-123 -206,-202 c-44,-66 -67,-124 -99,-248 c-14,-54 -28,-88 -36,-88 c-37,0 -49,194 -20,315 c20,83 88,229 145,314 c23,34 99,135 169,224 c189,243 203,264 209,333 c6,67 -24,174 -84,304 c-19,41 -41,102 -48,135 c-29,119 -13,324 35,460 c17,47 23,91 26,205 c3,94 10,162 20,193 c21,63 12,73 -52,55 c-65,-18 -89,-13 -119,27 l-26,33 l-47,-15 c-57,-18 -167,-12 -232,12 c-91,34 -104,33 -165,-23 c-65,-60 -108,-76 -265,-98 c-203,-30 -222,-29 -258,1 c-18,15 -32,33 -32,40 c0,26 -19,26 -58,0 c-50,-33 -218,-69 -276,-60 c-42,7 -126,40 -126,49 c0,16 77,34 170,40 c126,8 166,18 204,51 c35,30 41,31 73,5 c33,-26 69,-25 118,2 c32,17 65,23 160,29 c125,7 185,20 345,71 c90,29 100,30 185,22 c50,-5 158,-9 240,-9 c125,0 158,3 199,19 c38,16 75,20 169,20 l121,1 l12,48 c7,26 19,59 28,72 c10,15 16,46 16,81 c0,58 43,174 65,174 c6,0 21,-7 33,-16 c15,-10 35,-14 55,-11 c34,5 67,-7 67,-25 c0,-6 -26,-38 -58,-73 c-32,-34 -63,-75 -69,-91 c-14,-40 -34,-146 -28,-153 c3,-2 22,12 43,32 c56,55 101,69 209,68 c91,-1 92,0 133,34 c44,37 52,40 135,50 c62,8 123,35 151,66 c12,13 40,56 62,94 c22,39 70,104 106,147 c69,80 80,110 46,128 c-37,20 -42,54 -19,123 c23,68 22,152 -3,203 c-24,51 -41,36 -60,-53 c-9,-44 -23,-94 -31,-110 c-26,-49 -85,-93 -126,-93 c-35,0 -23,27 34,77 c78,69 74,112 -15,142 c-60,20 -80,47 -80,108 c0,62 -12,68 -55,23 c-20,-21 -38,-30 -61,-30 c-104,0 -126,-25 -135,-154 c-3,-50 -11,-104 -17,-121 c-6,-16 -14,-42 -17,-56 c-3,-17 -18,-35 -40,-48 c-60,-35 -104,-133 -52,-116 c43,14 98,17 111,6 c20,-16 9,-44 -31,-86 c-28,-29 -41,-36 -67,-33 c-24,2 -34,10 -45,35 c-12,26 -21,33 -49,35 c-42,4 -62,29 -45,56 c7,13 8,24 1,36 c-7,13 -6,25 3,43 c10,19 11,28 1,41 c-34,47 -24,75 28,80 c27,3 38,-2 57,-27 c39,-49 94,-36 109,25 c8,30 -19,74 -45,74 c-11,0 -34,-12 -51,-26 c-26,-22 -38,-26 -75,-22 c-51,6 -60,-1 -70,-54 c-4,-20 -16,-44 -26,-54 c-23,-21 -24,-47 -3,-79 c11,-17 13,-29 6,-42 c-17,-31 -48,-54 -66,-47 c-24,9 -19,31 9,38 c20,5 25,13 25,37 c0,32 -22,48 -43,31 c-6,-5 -29,-12 -50,-16 c-20,-4 -54,-21 -73,-38 l-36,-32 l-18,25 c-38,50 -49,149 -30,278 c13,90 3,105 -62,99 c-37,-4 -51,-2 -55,9 c-3,8 13,58 36,111 c46,108 47,114 26,132 c-11,9 -46,9 -157,0 c-237,-18 -347,10 -446,113 c-27,30 -64,82 -81,115 c-17,34 -36,62 -42,62 c-6,0 -32,-17 -58,-39 c-167,-140 -340,-195 -488,-157 c-66,16 -140,52 -185,87 l-26,21 l-189,-46 c-222,-54 -412,-94 -618,-131 c-152,-27 -188,-41 -163,-62 c15,-13 231,-30 553,-43 c263,-11 395,-33 585,-99 c215,-74 366,-153 481,-252 c68,-59 86,-89 52,-89 c-30,0 -100,-40 -111,-64 c-24,-54 19,-87 188,-146 c160,-55 254,-114 380,-240 c114,-114 156,-174 130,-190 c-43,-27 -201,-24 -336,6 l-70,15 l-135,-45 c-134,-45 -244,-66 -343,-66 c-29,0 -76,-7 -104,-15 c-47,-14 -57,-14 -104,0 c-62,18 -110,11 -154,-21 c-47,-36 -110,-55 -208,-61 c-91,-6 -176,-29 -183,-50 c-7,-20 25,-41 104,-68 c62,-21 107,-29 215,-35 c75,-4 163,-16 195,-25 c41,-12 75,-15 114,-11 c31,4 106,2 167,-4 c109,-10 113,-10 174,16 c34,14 101,31 148,37 c86,11 89,10 291,-37 c112,-26 209,-49 215,-51 c16,-5 26,-68 19,-123 c-3,-26 -18,-96 -33,-157 c-22,-93 -26,-133 -26,-260 c-1,-142 1,-154 28,-220 c54,-135 116,-326 116,-358 c-1,-55 -31,-104 -219,-352 c-201,-265 -253,-356 -296,-515 c-14,-52 -28,-131 -31,-176 c-7,-80 -7,-81 35,-161 c56,-107 148,-199 189,-188 c84,22 151,24 257,8 c134,-19 237,-9 378,38 c164,55 248,69 462,79 c217,10 280,19 389,56 c93,31 111,30 187,-10 c80,-42 141,-62 244,-79 c57,-10 102,-26 155,-55 c105,-57 281,-131 443,-185 c76,-26 148,-52 160,-58 c41,-23 130,-114 177,-184 c46,-68 107,-130 202,-207 c53,-43 82,-97 102,-191 c17,-82 36,-107 84,-107 c53,0 125,76 141,147 c14,67 0,148 -41,228 c-50,100 -60,136 -63,235 c-4,149 -30,180 -149,180 c-54,0 -75,6 -131,34 c-91,48 -126,77 -315,261 c-107,104 -188,173 -230,198 c-71,41 -203,87 -251,87 c-45,0 -146,37 -214,78 c-57,34 -163,134 -302,283 c-34,37 -99,91 -145,122 c-46,30 -98,71 -116,90 l-33,34 l118,6 c192,10 368,54 523,132 c96,49 165,97 340,238 c214,173 272,202 387,195 c52,-3 71,-10 116,-41 c89,-62 114,-158 68,-262 l-21,-48 l-25,23 c-14,13 -26,22 -26,19 c-1,-2 -2,-38 -3,-79 c-2,-58 -9,-89 -31,-138 c-15,-34 -25,-65 -22,-69 c12,-11 134,77 196,142 c57,60 75,99 50,107 c-8,3 -7,23 6,73 c37,150 -28,276 -183,352 c-100,49 -228,41 -353,-23 c-73,-37 -271,-172 -409,-279 c-196,-152 -298,-195 -466,-195 c-103,0 -258,34 -303,67 c-14,11 -39,47 -56,81 c-16,34 -47,81 -67,106 c-45,53 -145,122 -199,136 c-31,9 -39,15 -39,34 c0,48 69,106 127,106 c15,0 46,-11 68,-25 c49,-30 52,-30 60,-6 c9,29 -18,81 -64,126 c-46,43 -50,59 -22,75 c51,27 194,-3 326,-69 c122,-61 249,-156 374,-279 c51,-51 97,-92 102,-92 c5,0 11,10 13,23 c3,12 10,51 17,86 c15,77 65,182 112,236 c86,99 225,146 432,147 c72,0 168,-5 214,-12 c45,-6 85,-9 87,-7 c2,2 -13,42 -35,88 c-52,114 -97,258 -111,356 c-26,193 46,347 195,418 c99,47 175,59 358,59 c92,0 167,1 167,3 c0,1 -32,51 -71,110 c-92,138 -173,306 -200,413 c-30,119 -25,253 14,332 c38,77 127,158 230,208 c79,38 249,90 295,90 c12,0 22,2 22,4 c0,2 -15,51 -34,108 c-53,159 -68,246 -69,398 c-1,282 67,479 268,780 c120,179 223,386 270,543 c44,147 45,183 7,170 zm-3229,-5406 c29,-23 67,-49 85,-56 c36,-15 37,-18 17,-45 c-8,-11 -15,-33 -15,-49 c0,-27 -2,-29 -32,-24 c-18,3 -99,12 -181,18 l-147,13 l47,49 c51,53 153,137 166,137 c4,0 31,-19 60,-43 zm964,-167 c31,-19 73,-84 73,-114 c0,-12 -11,-8 -47,14 c-29,19 -61,30 -82,30 c-20,0 -46,8 -57,18 c-20,15 -44,52 -44,66 c0,3 28,6 63,6 c44,0 71,-6 94,-20 zm-265,-46 c43,-22 34,-34 -29,-34 c-49,0 -67,-6 -116,-36 l-59,-37 l-101,9 c-144,13 -141,27 18,73 c39,11 79,27 90,36 c16,13 35,15 94,10 c41,-3 87,-13 103,-21 zm581,6 c21,-6 56,-27 77,-46 c43,-39 60,-96 53,-174 c-7,-71 11,-82 144,-84 l108,-2 l100,-72 c124,-89 255,-156 360,-181 c91,-23 106,-36 131,-116 c20,-64 15,-81 -30,-100 c-18,-8 -36,-23 -39,-34 c-7,-29 24,-88 87,-165 c73,-88 89,-120 90,-177 c1,-35 -5,-54 -28,-83 c-30,-40 -38,-40 -43,0 c-7,51 -45,135 -83,183 c-21,26 -80,85 -132,131 c-112,98 -148,138 -148,162 c0,20 44,26 55,8 c12,-19 57,-10 77,15 c11,14 28,25 38,25 c44,0 26,60 -29,97 c-24,16 -49,23 -83,23 c-79,0 -175,30 -296,92 c-63,32 -141,70 -173,83 c-81,33 -117,61 -127,98 c-8,29 -12,33 -58,38 c-118,15 -194,102 -210,244 l-7,58 l64,-6 c35,-4 81,-11 102,-17 zm-1873,-54 c0,-2 -7,-20 -15,-39 c-8,-20 -15,-52 -15,-72 c0,-34 -1,-35 -39,-35 c-21,0 -62,-7 -90,-17 c-39,-12 -61,-14 -89,-7 c-53,13 -52,36 1,89 c39,39 50,45 88,46 c24,0 67,9 94,19 c52,19 65,22 65,16 z" id="svg_2" fill="#4e008d" fill-opacity="1" stroke="none" stroke-opacity="1"/>
<path d="M3,10169.555557250977 c-10,-26 32,-180 83,-308 c54,-132 116,-244 230,-414 c260,-386 318,-741 186,-1139 l-38,-112 l41,-7 c22,-3 78,-17 124,-31 c478,-137 542,-475 192,-1006 c-39,-59 -71,-109 -71,-110 c0,-1 82,-2 183,-2 c201,0 250,-9 360,-68 c114,-60 167,-151 175,-298 c7,-142 -24,-268 -115,-462 c-20,-42 -34,-79 -32,-82 c3,-2 36,1 74,6 c116,18 350,15 425,-4 c194,-51 304,-174 346,-387 c9,-47 18,-86 19,-88 c2,-2 57,48 124,111 c179,171 349,279 499,318 c167,42 240,13 156,-63 c-42,-39 -64,-77 -64,-113 c0,-31 18,-32 62,-5 c41,25 90,26 130,3 c31,-19 73,-77 64,-91 c-3,-5 -38,-25 -79,-45 c-115,-57 -212,-156 -232,-238 c-16,-63 -109,-106 -277,-130 c-68,-9 -99,-8 -170,4 c-119,21 -209,67 -358,183 c-158,123 -344,247 -439,292 c-64,31 -88,37 -160,40 c-119,5 -183,-19 -267,-102 c-52,-51 -65,-71 -80,-121 c-16,-56 -16,-65 -1,-140 c10,-49 13,-81 7,-83 c-26,-9 -7,-53 48,-109 c53,-54 173,-143 193,-143 c13,0 11,23 -5,46 c-25,35 -49,134 -43,181 c5,49 -6,63 -32,39 c-10,-9 -20,-16 -23,-16 c-3,0 -14,21 -24,48 c-22,57 -22,137 -1,179 c23,44 82,90 140,109 c114,38 204,-3 457,-207 c96,-77 206,-159 244,-181 c162,-95 367,-154 574,-165 c67,-3 122,-10 122,-14 c0,-10 -114,-101 -192,-153 c-32,-21 -98,-84 -148,-142 c-173,-198 -299,-280 -472,-304 c-163,-23 -256,-81 -483,-300 c-101,-97 -208,-190 -240,-209 c-83,-50 -151,-71 -206,-65 c-39,5 -49,2 -76,-20 c-37,-31 -43,-54 -47,-173 c-2,-83 -6,-98 -43,-174 c-50,-103 -63,-148 -63,-218 c0,-71 30,-134 83,-172 c78,-56 125,-28 146,88 c16,92 51,146 138,215 c78,63 115,103 171,185 c38,56 116,138 157,166 c11,8 72,31 135,51 c166,54 298,108 432,176 c87,44 138,63 202,74 c101,19 139,32 240,82 l77,37 l102,-31 c146,-44 134,-42 352,-52 c229,-10 309,-23 490,-82 c143,-46 105,-43 480,-35 c55,1 120,-2 143,-7 l44,-9 l62,65 c39,41 76,93 100,141 l38,77 l-16,109 c-35,236 -81,328 -322,647 c-102,135 -192,260 -200,279 c-8,19 -14,50 -14,70 c0,33 46,178 116,365 c26,69 29,85 28,210 c-1,112 -6,154 -28,245 c-15,61 -30,147 -33,192 c-7,99 -28,85 221,143 c163,39 189,42 275,38 c75,-4 110,-11 161,-33 c36,-15 72,-27 80,-26 c8,0 87,3 175,6 c91,4 188,13 225,22 c36,8 115,17 175,18 c88,2 126,8 190,29 c94,32 127,52 123,72 c-5,24 -105,53 -179,54 c-82,0 -153,21 -207,60 c-48,34 -109,40 -167,16 c-29,-13 -41,-13 -77,-2 c-24,8 -97,19 -163,25 c-129,11 -244,38 -336,77 c-67,28 -100,29 -184,9 c-61,-15 -227,-20 -284,-9 c-45,9 -40,32 29,117 c122,153 293,270 472,325 c135,42 192,88 170,136 c-11,24 -84,66 -115,66 c-28,0 -20,14 41,72 c78,74 135,111 266,173 c274,130 553,195 839,195 c141,0 438,18 482,29 c46,11 45,38 -2,46 c-158,28 -565,112 -728,152 c-159,38 -199,45 -213,35 c-104,-74 -193,-105 -296,-104 c-125,2 -242,51 -371,156 c-31,25 -63,46 -70,46 c-7,0 -25,-25 -40,-55 c-14,-30 -49,-80 -77,-111 c-85,-92 -171,-124 -333,-123 c-55,0 -131,4 -170,8 c-78,9 -115,0 -115,-26 c0,-10 18,-60 41,-112 c22,-52 38,-100 35,-108 c-4,-10 -17,-12 -55,-7 c-65,8 -76,-9 -61,-98 c19,-119 7,-229 -29,-277 l-19,-25 l-35,31 c-19,17 -51,33 -72,37 c-21,4 -46,13 -57,19 c-15,10 -21,9 -28,-3 c-16,-23 -7,-54 18,-65 c26,-11 29,-30 5,-39 c-10,-4 -25,2 -40,16 c-25,23 -25,28 -7,101 c5,21 1,34 -14,50 c-11,12 -22,38 -26,58 c-8,44 -25,62 -46,49 c-26,-16 -66,-11 -86,11 c-48,54 -104,43 -104,-20 c0,-72 70,-98 110,-40 c18,24 28,29 53,27 c45,-4 56,-30 33,-73 c-18,-34 -18,-36 -1,-55 c14,-15 15,-23 6,-33 c-6,-8 -8,-27 -5,-44 c7,-34 -15,-58 -45,-50 c-24,6 -32,0 -51,-38 c-12,-22 -24,-31 -47,-33 c-25,-3 -37,4 -67,39 c-39,46 -45,73 -20,83 c25,10 82,7 89,-4 c6,-10 45,-14 45,-5 c0,23 -33,76 -61,98 c-19,15 -40,32 -46,38 c-7,5 -13,22 -13,37 c0,15 -8,39 -17,52 c-12,17 -18,48 -20,95 c-4,142 -16,160 -106,167 c-48,4 -63,10 -91,37 c-42,41 -57,34 -50,-22 c5,-37 2,-48 -21,-75 c-16,-19 -40,-34 -61,-38 c-32,-6 -74,-44 -74,-67 c0,-5 27,-35 60,-67 c33,-32 60,-63 60,-69 c0,-16 -37,-14 -77,6 c-49,23 -80,76 -100,169 c-9,43 -22,85 -29,93 c-11,12 -16,8 -33,-30 c-26,-56 -27,-133 -2,-203 c16,-45 17,-58 6,-83 c-7,-17 -20,-33 -29,-36 c-31,-12 -16,-51 48,-126 c35,-40 85,-109 110,-152 c69,-115 104,-139 225,-154 c62,-7 85,-17 124,-54 c27,-24 34,-26 130,-26 c89,-1 108,-4 145,-25 c23,-13 49,-34 57,-47 c22,-33 48,-31 41,5 c-4,15 -9,45 -11,67 c-6,45 -64,136 -107,168 c-55,41 -43,81 22,71 c27,-4 45,-1 64,11 c29,19 56,14 56,-11 c0,-10 8,-26 17,-36 c11,-12 19,-45 23,-96 c4,-42 14,-90 23,-107 c9,-16 20,-46 23,-65 c4,-19 11,-38 17,-41 c5,-4 54,-5 108,-2 c86,5 107,3 166,-17 c77,-26 221,-31 434,-16 c113,9 117,8 210,-22 c155,-51 169,-54 300,-61 c98,-6 135,-12 170,-29 c52,-25 111,-29 129,-7 c17,20 54,19 71,-2 c25,-29 77,-43 186,-49 c98,-5 183,-25 183,-44 c0,-13 -76,-42 -125,-47 c-84,-9 -231,28 -292,72 c-21,16 -22,15 -38,-18 c-25,-53 -73,-70 -152,-55 c-26,5 -97,15 -156,23 c-128,17 -183,40 -248,100 c-27,25 -56,45 -65,45 c-10,0 -37,-10 -61,-21 c-55,-27 -191,-37 -259,-20 c-47,12 -47,12 -79,-24 c-36,-38 -51,-41 -120,-23 c-24,7 -47,9 -51,5 c-4,-4 0,-33 9,-64 c10,-36 18,-111 20,-198 c3,-96 9,-152 20,-177 c33,-78 51,-191 51,-318 c0,-135 -9,-179 -55,-275 c-48,-101 -89,-231 -89,-285 c0,-86 14,-109 235,-392 c191,-244 255,-361 290,-530 c18,-83 19,-148 4,-220 c-11,-53 -24,-77 -34,-66 c-3,3 -20,55 -36,114 c-17,60 -47,140 -67,179 c-47,88 -137,186 -227,243 c-180,115 -319,244 -362,337 c-24,51 -28,74 -30,157 c-1,53 -6,105 -12,116 c-6,12 -11,41 -11,66 c0,41 4,49 33,67 c25,16 42,19 80,14 c26,-3 53,-2 60,2 c7,4 26,8 42,8 c35,0 36,9 11,100 c-20,73 -20,130 -1,220 c31,146 15,328 -37,428 c-24,45 -29,145 -14,238 c12,65 -8,95 -122,190 c-123,102 -323,254 -361,274 c-40,20 -46,6 -16,-35 c39,-53 34,-61 -30,-54 c-45,6 -55,4 -55,-8 c0,-9 10,-22 22,-30 c12,-8 27,-32 33,-53 c9,-33 20,-45 70,-73 c75,-42 110,-75 134,-126 c25,-52 37,-131 22,-140 c-17,-11 -61,43 -96,119 c-42,91 -77,123 -161,146 c-96,27 -197,90 -286,179 c-62,63 -85,96 -121,171 c-48,99 -109,169 -209,239 c-94,65 -223,240 -304,408 c-48,101 -119,187 -189,227 c-22,13 -80,38 -130,56 c-98,34 -180,73 -190,89 c-11,17 20,11 77,-15 c33,-15 83,-27 128,-31 c65,-6 83,-12 135,-47 c33,-22 112,-91 176,-154 c63,-62 118,-110 122,-107 c3,4 -5,29 -19,56 c-36,71 -47,141 -30,183 c18,42 81,88 149,111 c60,19 131,73 152,114 c67,130 -68,233 -535,408 c-420,158 -728,312 -1035,517 c-538,361 -753,549 -940,825 c-67,98 -91,121 -102,94 zm3433,-5426 c35,-33 64,-64 64,-69 c0,-5 -30,-9 -68,-9 c-64,0 -205,-14 -265,-26 c-25,-5 -28,-3 -23,13 c3,10 -3,35 -13,56 l-19,37 l42,19 c22,10 61,36 86,58 l45,41 l43,-30 c24,-16 72,-57 108,-90 zm-1006,-82 c0,-8 -11,-28 -25,-44 c-19,-22 -36,-31 -73,-36 c-26,-3 -65,-18 -86,-32 c-20,-14 -40,-23 -43,-21 c-10,11 18,74 45,100 c36,35 67,46 130,46 c39,1 52,-3 52,-13 zm-310,-64 c0,-56 -26,-133 -60,-180 c-35,-49 -88,-78 -159,-88 c-44,-6 -51,-9 -51,-29 c0,-27 -48,-71 -100,-92 c-19,-8 -98,-45 -175,-83 c-151,-75 -230,-100 -311,-100 c-59,0 -111,-29 -132,-73 c-15,-31 -9,-47 18,-47 c10,0 28,-12 39,-26 c17,-21 26,-25 48,-20 c16,4 40,10 56,13 c57,11 27,-31 -123,-177 c-157,-153 -195,-207 -207,-301 c-3,-21 -9,-39 -13,-39 c-15,0 -58,59 -64,88 c-12,52 26,128 112,226 c41,46 75,118 66,140 c-4,9 -21,23 -39,30 c-18,8 -36,23 -39,34 c-8,23 27,129 48,150 c7,8 45,20 82,28 c91,19 266,107 374,188 l86,64 l111,4 c142,4 149,9 145,108 c-3,57 1,77 19,109 c29,52 96,88 185,100 c38,4 72,9 77,10 c4,0 7,-16 7,-37 zm630,8 c22,-11 68,-28 103,-36 c124,-32 124,-49 -2,-64 c-94,-12 -107,-10 -176,34 c-40,25 -60,31 -104,31 c-66,0 -76,17 -24,38 c56,23 155,22 203,-3 zm1221,-86 c54,-6 105,-41 130,-86 c21,-39 -54,-62 -127,-39 c-16,5 -49,12 -74,16 l-46,6 l-11,52 c-6,29 -14,62 -18,74 l-7,22 l50,-19 c27,-10 74,-22 103,-26 z" id="svg_3" fill="#4e008d" fill-opacity="1" stroke="none" stroke-opacity="1"/>
<path d="M14528,8908.555557250977 c-3,-48 -3,-48 -53,-64 l-50,-17 l48,-20 l47,-21 l-19,-51 c-10,-27 -17,-50 -14,-50 c3,0 23,5 43,11 c34,10 41,9 75,-14 c44,-30 55,-27 55,13 c0,35 20,56 60,65 c16,4 30,10 30,13 c0,4 -14,19 -32,33 c-31,26 -32,28 -21,73 c5,25 8,46 4,46 c-3,0 -25,-7 -49,-17 l-43,-16 l-32,31 c-18,18 -36,32 -39,32 c-4,0 -8,-21 -10,-47 z" id="svg_4" fill="#4e008d" fill-opacity="1" stroke="none" stroke-opacity="1"/>
<path d="M12855,7878.555557250977 c-557,-57 -1037,-426 -1320,-1014 c-316,-660 -295,-1419 55,-1888 c67,-89 192,-211 276,-268 c249,-169 605,-257 959,-238 c118,7 244,20 251,27 c5,5 66,1270 61,1274 c-2,2 -43,-12 -91,-31 c-127,-52 -205,-68 -311,-63 c-112,5 -200,42 -273,116 c-95,94 -138,229 -130,405 c11,220 126,410 302,499 c59,30 61,30 190,26 c126,-4 188,-18 287,-62 c15,-6 17,47 24,599 c4,333 4,609 0,613 c-7,8 -218,12 -280,5 z" id="svg_5" fill="#4e008d" fill-opacity="1" stroke="none" stroke-opacity="1"/>
<path d="M13805,7823.555557250977 c-258,-11 -473,-23 -477,-27 c-4,-3 -14,-105 -22,-226 c-46,-660 -62,-1393 -47,-2040 c10,-433 30,-946 36,-953 c2,-2 95,17 207,42 c234,52 400,84 617,121 c85,14 158,28 163,31 c4,3 9,105 9,227 c1,122 4,287 8,367 l6,145 l129,-310 c71,-170 133,-323 139,-338 c8,-23 14,-27 31,-22 c11,3 116,9 232,12 c235,6 385,-4 613,-43 c79,-13 146,-22 148,-20 c5,5 -133,435 -224,696 c-92,266 -202,556 -286,760 l-64,155 l348,696 l348,697 l-292,7 c-161,4 -395,3 -522,-2 l-229,-8 l-176,-382 c-96,-210 -179,-385 -183,-389 c-4,-4 -7,180 -7,409 c0,391 -1,417 -17,416 c-10,-1 -229,-11 -488,-21 z" id="svg_6" fill="#4e008d" fill-opacity="1" stroke="none" stroke-opacity="1"/>
<path d="M10430,7469.555557250977 c-212,-18 -397,-33 -411,-33 c-25,-1 -30,-11 -99,-208 c-296,-846 -694,-1810 -1119,-2713 c-56,-118 -101,-217 -101,-220 c0,-3 58,9 129,26 c235,58 541,107 746,119 c149,9 141,5 149,75 c13,114 77,256 119,264 c43,9 536,38 545,32 c11,-7 47,-151 62,-245 c5,-35 11,-64 12,-65 c4,-2 1063,16 1065,18 c1,1 -23,80 -53,176 c-276,873 -462,1807 -526,2653 l-12,157 l-61,-1 c-33,-1 -233,-16 -445,-35 zm-167,-1576 c4,-57 14,-143 23,-193 c8,-49 16,-94 17,-100 c1,-6 -41,-11 -115,-13 l-116,-3 l63,143 c34,79 73,171 86,206 c13,34 27,62 30,62 c3,0 9,-46 12,-102 z" id="svg_7" fill="#4e008d" fill-opacity="1" stroke="none" stroke-opacity="1"/>
<path d="M5379,7259.555557250977 l-35,-35 l-48,21 l-48,20 l6,-25 c3,-14 9,-36 12,-49 c4,-18 -2,-30 -31,-53 l-37,-31 l45,-17 c42,-16 46,-21 54,-62 l8,-45 l43,31 c41,31 43,31 79,16 c20,-8 38,-13 41,-11 c2,3 -4,25 -13,51 c-10,25 -16,47 -14,49 c2,2 22,12 43,23 l39,20 l-44,15 c-42,14 -44,17 -49,61 c-3,25 -8,48 -11,51 c-3,3 -21,-10 -40,-30 z" id="svg_8" fill="#4e008d" fill-opacity="1" stroke="none" stroke-opacity="1"/>
<path d="M16299,7173.555557250977 c-30,-32 -48,-78 -55,-145 c-7,-65 -22,-94 -70,-138 c-35,-32 -60,-93 -45,-108 c5,-5 26,7 51,30 c24,21 61,47 84,58 c57,28 68,54 61,141 c-4,54 -2,82 11,113 c26,65 5,92 -37,49 z" id="svg_9" fill="#4e008d" fill-opacity="1" stroke="none" stroke-opacity="1"/>
<path d="M8170,6843.555557250977 c-160,-77 -394,-174 -538,-223 c-62,-22 -117,-46 -122,-54 c-4,-9 -40,-122 -79,-251 c-70,-232 -139,-427 -178,-505 c-91,-178 -138,-387 -163,-728 c-12,-155 -33,-1218 -24,-1226 c8,-8 266,27 404,55 c188,38 314,77 545,168 c212,85 404,150 527,181 c37,10 71,22 76,29 c15,20 335,837 330,842 c-3,2 -88,-20 -189,-51 c-242,-73 -629,-158 -646,-142 c-21,22 -31,722 -13,958 c28,354 95,700 183,942 c13,37 22,67 18,66 c-3,0 -62,-28 -131,-61 z" id="svg_10" fill="#4e008d" fill-opacity="1" stroke="none" stroke-opacity="1"/>
<path d="M6236,6433.555557250977 c-503,-7 -1087,-25 -1096,-34 c-3,-3 -8,-434 -11,-957 c-6,-1029 -4,-985 -64,-1322 c-35,-191 -78,-363 -131,-519 c-24,-72 -44,-134 -44,-137 c0,-4 30,9 66,28 c147,78 358,161 555,218 c164,47 345,81 564,105 c105,11 217,27 250,36 c84,21 249,104 317,158 c210,167 338,482 338,830 c0,123 -15,199 -57,286 c-26,54 -109,146 -168,187 l-29,21 l76,78 c299,307 443,569 408,740 c-30,143 -217,269 -420,283 c-47,3 -297,3 -554,-1 zm119,-727 c96,-56 99,-224 5,-291 c-39,-28 -111,-50 -163,-50 c-39,0 -39,0 -33,33 c3,17 12,88 21,157 c19,159 21,168 43,174 c28,8 95,-4 127,-23 zm-225,-984 c0,-23 -48,-134 -76,-174 c-39,-57 -122,-107 -167,-101 c-24,3 -23,4 41,141 l65,137 l69,0 c37,0 68,-2 68,-3 z" id="svg_11" fill="#4e008d" fill-opacity="1" stroke="none" stroke-opacity="1"/>
<path d="M3620,5521.555557250977 c0,-7 7,-30 15,-50 c12,-28 14,-55 9,-111 c-8,-87 6,-117 62,-141 c20,-8 55,-33 80,-56 c24,-22 47,-38 50,-35 c17,16 -10,83 -46,116 c-49,46 -59,68 -66,138 c-9,84 -47,153 -86,153 c-10,0 -18,-6 -18,-14 z" id="svg_12" fill="#4e008d" fill-opacity="1" stroke="none" stroke-opacity="1"/>
<path d="M14618,4690.555557250977 c-191,-27 -364,-67 -708,-165 c-113,-32 -232,-63 -265,-70 c-33,-7 -63,-16 -67,-19 c-4,-4 -19,-74 -33,-156 c-33,-190 -75,-383 -121,-553 c-20,-73 -34,-135 -32,-137 c2,-3 48,6 100,20 c118,29 344,53 360,37 c14,-14 -5,-652 -27,-937 c-27,-338 -93,-886 -135,-1105 c-6,-29 -9,-55 -7,-56 c2,-2 215,-6 474,-10 l471,-7 l15,54 c105,369 186,1097 187,1674 c0,83 3,208 7,279 l6,129 l141,-6 c87,-4 175,-14 230,-26 c50,-12 92,-21 94,-21 c6,0 -4,114 -28,320 c-36,317 -41,386 -41,567 c0,161 -2,182 -17,189 c-33,14 -502,14 -604,-1 z" id="svg_13" fill="#4e008d" fill-opacity="1" stroke="none" stroke-opacity="1"/>
<path d="M15436,4598.555557250977 c-20,-213 -27,-405 -36,-1018 c-10,-702 -20,-975 -46,-1225 c-30,-295 -87,-587 -153,-782 c-16,-49 -27,-88 -23,-88 c4,1 120,-2 257,-5 c220,-4 510,-23 631,-41 l41,-6 l31,72 c88,196 143,511 160,907 l7,168 l159,3 l159,3 l-6,-178 c-12,-327 -61,-637 -136,-853 c-21,-63 -38,-116 -36,-118 c5,-5 948,-53 979,-50 c27,3 31,9 53,73 c37,107 71,270 89,417 c13,108 15,190 9,433 c-8,347 0,500 51,1005 c35,348 36,360 27,605 c-4,138 -8,326 -8,418 l0,169 l-50,-6 c-278,-34 -682,-34 -885,-1 l-36,6 l4,-497 l4,-497 l-113,6 c-63,4 -135,7 -161,7 l-48,0 l-2,498 l-3,497 l-50,2 c-252,12 -470,44 -704,104 c-85,21 -155,39 -156,39 c-2,0 -6,-30 -9,-67 z" id="svg_14" fill="#4e008d" fill-opacity="1" stroke="none" stroke-opacity="1"/>
<path d="M12038,4368.555557250977 l-167,-3 l-11,-43 c-31,-118 -151,-509 -221,-718 c-217,-653 -466,-1256 -808,-1963 c-61,-126 -111,-230 -111,-231 c0,-1 44,8 98,21 c212,51 494,92 959,140 l52,5 l6,57 c14,124 58,236 97,245 c119,30 609,52 645,29 c35,-22 83,-192 83,-295 l0,-67 l28,7 c54,14 620,7 771,-10 c79,-9 147,-14 152,-11 c15,9 10,349 -6,488 c-37,319 -125,634 -315,1136 c-45,118 -113,298 -152,400 c-114,303 -174,491 -249,783 l-10,37 l-337,-2 c-185,-1 -412,-4 -504,-5 zm321,-1450 c37,-91 80,-292 63,-294 c-271,-26 -262,-26 -262,-6 c0,67 141,400 161,380 c6,-6 23,-41 38,-80 z" id="svg_15" fill="#4e008d" fill-opacity="1" stroke="none" stroke-opacity="1"/>
<path d="M10040,4288.555557250977 c-309,-8 -851,-63 -1137,-114 l-63,-11 l0,-397 c0,-749 -35,-1695 -90,-2471 c-10,-146 -17,-267 -14,-269 c14,-14 663,77 925,129 c750,151 1121,390 1254,810 c33,105 41,196 26,284 c-33,187 -124,307 -315,411 l-67,37 l64,67 c329,342 364,874 83,1240 c-86,112 -212,206 -349,261 c-63,25 -87,30 -149,28 c-40,-1 -116,-3 -168,-5 zm-178,-823 c44,-13 93,-52 113,-91 c17,-32 20,-106 5,-143 c-18,-48 -79,-104 -136,-126 c-90,-33 -84,-45 -84,175 l0,195 l33,0 c17,0 49,-5 69,-10 zm35,-1266 c83,-40 118,-113 89,-189 c-22,-57 -72,-100 -138,-120 c-94,-28 -88,-40 -88,166 l0,181 l43,-7 c23,-3 65,-18 94,-31 z" id="svg_16" fill="#4e008d" fill-opacity="1" stroke="none" stroke-opacity="1"/>
<path d="M8195,3988.5555572509766 c-106,-15 -303,-69 -590,-163 c-388,-127 -524,-159 -720,-168 l-140,-7 l-12,-125 c-16,-170 -54,-400 -123,-745 c-134,-667 -162,-850 -180,-1196 c-10,-194 0,-446 25,-611 c8,-54 17,-103 19,-106 c2,-4 96,0 208,10 c307,25 617,38 922,38 c341,0 431,16 595,106 c224,123 396,343 471,604 c34,116 39,335 11,455 c-49,202 -170,378 -341,495 c-19,13 -37,25 -39,26 c-1,2 30,36 71,76 c123,122 204,265 256,451 c13,47 17,102 17,232 c0,150 -3,179 -23,245 c-53,170 -150,298 -269,359 c-60,30 -86,34 -158,24 zm-528,-750 c65,-30 92,-117 57,-186 c-34,-68 -87,-108 -156,-121 c-38,-7 -38,-7 -38,26 c0,18 7,92 15,163 c8,72 15,134 15,139 c0,11 67,-2 107,-21 zm-76,-1124 c88,-30 138,-102 139,-197 c0,-67 -28,-123 -81,-162 c-40,-29 -139,-57 -159,-45 c-11,7 -14,397 -3,408 c10,11 66,8 104,-4 z" id="svg_17" fill="#4e008d" fill-opacity="1" stroke="none" stroke-opacity="1"/>
<path d="M5500,3530.5555572509766 c-216,-46 -444,-118 -612,-195 c-80,-36 -81,-37 -214,-295 c-225,-436 -399,-862 -485,-1181 c-82,-308 -106,-430 -124,-631 c-25,-283 -66,-459 -185,-788 c-33,-92 -59,-169 -57,-172 c2,-2 33,13 68,33 c220,125 477,238 631,278 c50,13 94,30 98,37 c4,8 18,63 31,123 c22,104 25,110 61,136 c115,84 309,150 504,174 c65,8 65,8 69,-149 c3,-92 7,-120 17,-118 c312,48 625,72 939,73 l156,0 l-54,147 c-67,183 -138,408 -209,663 c-43,153 -58,227 -70,340 c-65,624 -173,1068 -355,1460 c-49,105 -35,101 -209,65 zm-262,-1761 l-3,-176 l-55,-17 c-30,-10 -74,-27 -97,-40 l-43,-21 l0,22 c0,37 38,164 69,231 c29,64 108,177 123,177 c5,0 7,-79 6,-176 z" id="svg_18" fill="#4e008d" fill-opacity="1" stroke="none" stroke-opacity="1"/>
<path d="M3820,2924.5555572509766 c-267,-22 -351,-39 -485,-103 c-281,-133 -466,-379 -537,-709 c-16,-79 -21,-136 -21,-252 c0,-243 43,-422 157,-654 c50,-102 56,-120 56,-178 c0,-72 -15,-108 -60,-146 c-57,-48 -129,-45 -213,10 c-22,13 -40,23 -42,21 c-7,-9 -96,-253 -118,-328 c-37,-122 -93,-357 -115,-482 c-22,-125 -35,-110 108,-130 c58,-8 198,-13 360,-13 l265,0 l88,42 c191,91 373,233 479,373 c66,87 141,244 169,355 c32,126 32,354 0,503 c-43,204 -120,404 -238,616 c-36,66 -68,136 -70,156 c-7,50 19,98 62,116 c46,19 74,18 120,-6 c22,-11 41,-20 43,-20 c2,0 23,42 46,93 c48,102 101,246 141,378 c25,85 85,341 85,367 c0,14 20,15 -280,-9 z" id="svg_19" fill="#4e008d" fill-opacity="1" stroke="none" stroke-opacity="1"/>
</g></g></svg>